<svg width="223" height="245" viewBox="0 0 223 245" fill="none" xmlns="http://www.w3.org/2000/svg">
<path fill-rule="evenodd" clip-rule="evenodd" d="M123.344 3.73023C121.839 1.71353 119.577 0.394161 117.077 0.0749772C114.578 -0.244206 112.056 0.464205 110.09 2.0376C96.2597 13.1072 85.0479 27.0871 77.2546 42.9798C71.7697 54.165 68.0732 66.1036 66.2691 78.3624C58.1654 72.4929 51.0334 65.3431 45.1681 57.167C43.5593 54.9244 41.0332 53.5135 38.2766 53.318C35.5201 53.1225 32.8195 54.1628 30.9092 56.1559C15.8203 71.8985 5.69642 91.7181 1.79463 113.154C-2.10715 134.589 0.384997 156.696 8.96165 176.73C17.5383 196.764 31.8217 213.843 50.0383 225.845C68.2549 237.848 89.6024 244.245 111.43 244.244H111.435C136.95 244.229 161.687 235.477 181.515 219.449C201.342 203.42 215.059 181.087 220.374 156.179C225.689 131.271 222.28 105.297 210.716 82.5955C199.153 59.8944 180.12 41.8346 156.825 31.4447C143.612 25.0035 132.132 15.5016 123.344 3.73023Z" fill="white" fill-opacity="0.2"/>
</svg>
